<mxfile host="app.diagrams.net" modified="2024-06-26T11:37:34.603Z" agent="Mozilla/5.0 (Windows NT 10.0; Win64; x64) AppleWebKit/537.36 (KHTML, like Gecko) Chrome/126.0.0.0 Safari/537.36" version="24.6.3" etag="glu0t3QQ65-Uvx1I_9ee" type="github">
  <diagram name="PÃ¡gina-1" id="nkp_aUmWsodoFoZK8Zfs">
    <mxGraphModel>
      <root>
        <mxCell id="0" />
        <mxCell id="1" parent="0" />
      </root>
    </mxGraphModel>
  </diagram>
</mxfile>
